<?xml version="1.0" encoding="utf-8"?>
<!-- Generator: Adobe Illustrator 24.1.1, SVG Export Plug-In . SVG Version: 6.00 Build 0)  -->
<svg version="1.1" id="Layer_1" xmlns="http://www.w3.org/2000/svg" xmlns:xlink="http://www.w3.org/1999/xlink" x="0px" y="0px"
	 viewBox="0 0 512 512" style="enable-background:new 0 0 512 512;" xml:space="preserve">
<style type="text/css">
	.st0{fill-rule:evenodd;clip-rule:evenodd;fill:#444545;}
	.st1{fill-rule:evenodd;clip-rule:evenodd;fill:#F1B13B;}
	.st2{fill-rule:evenodd;clip-rule:evenodd;fill:#EDA129;}
	.st3{fill-rule:evenodd;clip-rule:evenodd;fill:#F05B5B;}
	.st4{fill-rule:evenodd;clip-rule:evenodd;fill:#EA4335;}
	.st5{fill-rule:evenodd;clip-rule:evenodd;fill:#0D7533;}
</style>
<g>
	<path class="st0" d="M153.7,319.1l-31.7,4.6c-3.3,1.2-7-0.5-8.3-3.8l-30-80.2c-1.2-3.3,0.5-7,3.8-8.3l31.8-4.6
		c3.3-1.2,7,0.5,8.3,3.8l30,80.2C158.7,314.2,157,317.9,153.7,319.1z"/>
	<path class="st1" d="M381.7,169.4c7,32.5-3,64.7-24,87.4c-5.8,6.3-12.5,11.8-19.9,16.5v42.2c0,0-14.4,5.3-29.1,10.7
		c4.6,9.1,3.9,20.3-2.5,29.1c0,0-87.9,77-109.5,94.6c-0.8,0.6-1.5,1.2-2.4,1.7c-0.8,1-1.7,2-2.8,2.9c-9.9,8.7-27.5,6.9-35.1-3.9
		c-13.4-18.9-37.5-65.4-49.2-88.2l-0.2,0.3l-7-14.2c-1-1.3-1.6-2.6-1.9-3.9L89,326.1l-2.2-10c0,0-5.7-25.2-5-32.2
		c0.7-7,14.5-35.6,14.5-35.6s3.2-9.3,7.7-6.6c6.1,3.1-0.1,13.4-1.2,14.6c-1.1,1.2-5.8,21.7-5.8,21.7l12.3-15.9l16.3-12.4
		c0,0,6.9-2.2,5.4,6.9c-0.5,5.4-13.7,13.7-13.7,13.7l-7.6,13.3l10.1-11.6l14.4-9.2c0,0,10.1-1.5,3.5,10l-12.5,8.4l-4.7,11.4
		c0,0,12.4-9.5,19.5-9.9c0,0,6.4,0.5,1.5,8c-0.9,1.4-2.4,1.8-3.8,2.2c-1,0.3-2,0.6-2.8,1.2c-3.9,3.3-6.2,7-6.2,7s1.4,11.3-6.3,20.8
		c1.4,0.7,2.9,1.9,4.3,3.5l56.1,80l78.7-83.1c4.2-5.6,10-9.2,16.3-10.6v-23.6c-42.1-3.4-78.7-33.9-88-77.3l-6.7-29.8
		c-11.4-53,22.4-105.2,75.4-116.6c53-11.4,105.2,22.4,116.6,75.4L381.7,169.4z"/>
	<path class="st2" d="M371.1,126.1l9.1,32l0.5,3.4c9.7-0.5,18.7,6.1,20.9,15.9c2.5,11-4.4,22-15.5,24.4c-1,0.2-1.9,0.4-2.9,0.4
		c-2.6,20.6-11.6,39.6-25.5,54.5c-13.3,14.3-30.9,24.8-51.4,29.2c-12.5,2.7-25,2.8-36.8,0.9c1.7-1.9,5.6-3.7,12.2-5.1
		c20.5-4.4,38.1-14.9,51.4-29.2c21-22.7,31-54.9,24-87.4l-6.7-29.8C341.1,91.9,304.5,89,291.3,88c-2.9-0.2-4.6-0.4-4.8-0.8
		C280.7,69.3,349,67.8,371.1,126.1z"/>
	<path class="st3" d="M257.3,254.5c-5.3,0-10.5-1.2-15.5-3.5c-1.2-0.5-1.7-1.9-1.1-3.1c0.6-1.2,2-1.7,3.1-1.1
		c8.1,3.8,17.2,4.1,25.4,0.7c5.3-2.2,9.8-5.7,13.2-10.2c0.8-1,2.2-1.3,3.3-0.5c1,0.8,1.3,2.2,0.5,3.3c-3.9,5.2-9.1,9.3-15.2,11.8
		C266.5,253.6,261.9,254.5,257.3,254.5z"/>
	<path class="st0" d="M338.9,80.6c13.1-10.5,19.8-27.8,15.9-45.3c-5.5-24.4-29.7-39.7-54-34.2c-24.4,5.5-39.7,29.7-34.2,54.1
		c0.6,2.6,1.4,5.1,2.3,7.4c-3.4,0.4-6.9,0.9-10.3,1.7c-1.3,0.3-2.6,0.6-3.9,0.9l-0.3,0.1c-49.7,12.9-81.2,62.3-71.7,113
		c9.7,0.1,19.6-0.9,29.5-3c28.7-6.1,53.3-21,71.6-41.3c22.3,51.1,79.8,61.9,79.8,61.9s-27.3-17.7-44.8-46.2
		c13.1,7.3,27.5,12.5,42.6,15c6.5,1.1,13.2,1.7,20,1.9l-4-28.3C372.1,113.9,357.9,94,338.9,80.6z M274.5,199.3l0.3,0
		c1.2,0,2.2-0.9,2.3-2.1c0.7-6.3,5.3-11.4,11.5-12.7c6.2-1.3,12.5,1.5,15.7,6.9c0.7,1.1,2.1,1.5,3.2,0.8c1.1-0.7,1.5-2.1,0.8-3.2
		c-4.3-7.2-12.6-10.8-20.7-9.1c-8.1,1.7-14.2,8.5-15.2,16.8C272.3,198,273.2,199.2,274.5,199.3z M198.2,215.7l-0.3,0
		c-1.3-0.1-2.2-1.3-2.1-2.6c0.9-8.3,7-15,15.1-16.8c8.1-1.7,16.5,1.9,20.7,9.1c0.7,1.1,0.3,2.6-0.8,3.2c-1.1,0.7-2.6,0.3-3.2-0.8
		c-3.3-5.5-9.6-8.2-15.7-6.9c-6.2,1.3-10.8,6.4-11.5,12.7C200.4,214.8,199.4,215.7,198.2,215.7z"/>
	<path class="st4" d="M355.5,512H229c-0.9-2.3-1.6-4.8-2-7.4l-12.3-90.5c-1.2-8.7,1.3-17.4,6.9-24.1l53.6-64.8
		c5.9-7.2,14.8-11.4,24.1-11.4h29.5c8.4,0,16.4,3.4,22.3,9.3c5.9,6,9.1,14.1,9,22.5l-2.4,155.3C357.7,504.8,356.9,508.5,355.5,512z"
		/>
	<path class="st5" d="M378.6,470.5V350.9c0-14-11.4-25.3-25.3-25.3c-14,0-25.3,11.4-25.3,25.3v119.6L378.6,470.5z M318.6,470.5
		V350.9c0-19.1,15.6-34.7,34.7-34.7c19.1,0,34.7,15.6,34.7,34.7v119.6h42.3V512H287.6v-41.5H318.6z"/>
	<path class="st1" d="M232.2,370.3c1.1,0.6,2.2,1.4,3.2,2.3l60.4,71l27-98c2.3-15.2,16.4-25.7,31.6-23.4
		c15.2,2.3,25.7,16.4,23.4,31.6c0,0-41.4,109.3-52.2,135c-2.9,6.8-8.5,13-15.1,15.9c-9.4,4.8-22.3,3.2-29.3-4.9
		c-20.5-23.7-69.5-101.6-69.5-101.6c-2.5-2.3-4.2-5.2-5-8.3c-4.3-4.8-9.6-9.2-15-10.3c-11.4-2.2-25.9-17.4-33.4-29.1
		c-1.7-2.7-2.2-6.5,1-8.7l1.6-0.8c-0.9-2.6,0.4-5.8,3.3-7.6c1.2-0.8,2.5-1.2,3.8-1.2c-0.4-2.2,0.7-4.7,3.3-6.4l1-0.7
		c0.4-0.3,0.9-0.6,1.4-0.9c3.1-1.1,6.8,0.2,9.4,1.2c2.6,1,4.1,1.5,2.4-1.5c-1.9-3.4-15.2-14.3-24.8-18.1c-8.4-3.4-5.4-15.5-0.1-14
		c11.6,3.3,19.5,8.7,28.2,15.7c1.7,1.3,3.5,2.9,5.4,4.7c0.1,1.8,1.1,3.6,3.2,4.8c0.7,0.4,1.5,0.8,2.1,1.2c1.1,0.6,2.1,1.2,3.1,1.8
		l0.8,0.7c3,2.8,5.7,5.3,7.4,6.7c-1.6-3.2-4.5-5.3-8.2-7.5c-2.7-2.5-5.7-5.3-8.5-7.8c-0.3-4.4,4.5-9.1,9.2-6.3
		c1.2,0.7,2.3,1.3,3.4,2c10.4,6,17,9.9,20,28.9c0.9,7.9,0.5,12.4,0.3,15.8C226.6,358.4,226.4,361,232.2,370.3z"/>
</g>
</svg>
